<?xml version="1.0" standalone="no"?>
<svg preserveAspectRatio="xMidYMid slice" viewBox="-220.5 33 1041 134" version="1.1" xmlns="http://www.w3.org/2000/svg" style="width:1041px;height:134px"><style type="text/css">svg * {color:#000;font-family:Times New Roman,serif;line-height:22px;font-style:normal;font-weight:500;}svg > text, svg > text > tspan {font-size:30px;}svg > text.prefix, svg > text.prefix > tspan {font-size:15px;}svg > text > tspan.d {font-size:20px;}svg > text.prefix > tspan.d {font-size:10px;}svg > text > tspan.u {font-size:20px;}svg > text.prefix > tspan.u {font-size:10px;}</style><rect style="fill:#FFF" height="134" width="1041" y="33" x="-220.5"/><defs><marker orient="auto" refY="7" refX="4" markerHeight="13" markerWidth="13" id="markerArrow145"><path style="fill:#000;" d="M2,7 L2,9.5 L5,7 L2,4.5 L2,7"/></marker><marker orient="auto" refY="7" refX="4" markerHeight="13" markerWidth="13" id="markerArrow145_extra"><path style="fill:#C00;" d="M2,7 L2,9.5 L5,7 L2,4.5 L2,7"/></marker></defs><circle style="fill:#000" r="20" cy="100" cx="50"/><circle style="fill:#FFF" r="18" cy="100" cx="50"/><text style="fill:#000;" text-anchor="middle" y="110" x="50"><tspan style="font-weight:bold;">#</tspan></text><path style="stroke: #000; stroke-width: 2.25px; fill: none; marker-end: url(#markerArrow145);" d="M75,100 L125,100"/><circle style="fill:#000" r="20" cy="100" cx="150"/><circle style="fill:#FFF" r="18" cy="100" cx="150"/><text style="fill:#000;" text-anchor="middle" y="110" x="150">T</text><path style="stroke: #000; stroke-width: 2.25px; fill: none; marker-end: url(#markerArrow145);" d="M175,100 L225,100"/><circle style="fill:#000" r="20" cy="100" cx="250"/><circle style="fill:#FFF" r="18" cy="100" cx="250"/><text style="fill:#000;" text-anchor="middle" y="110" x="250">G</text><path style="stroke: #000; stroke-width: 2.25px; fill: none; marker-end: url(#markerArrow145);" d="M275,100 L325,100"/><circle style="fill:#000" r="20" cy="100" cx="350"/><circle style="fill:#FFF" r="18" cy="100" cx="350"/><text style="fill:#000;" text-anchor="middle" y="110" x="350">T</text><path style="stroke: #000; stroke-width: 2.25px; fill: none; marker-end: url(#markerArrow145);" d="M375,100 L425,100"/><circle style="fill:#000" r="20" cy="100" cx="450"/><circle style="fill:#FFF" r="18" cy="100" cx="450"/><text style="fill:#000;" text-anchor="middle" y="110" x="450">C</text><path style="stroke: #000; stroke-width: 2.25px; fill: none; marker-end: url(#markerArrow145);" d="M475,100 L525,100"/><circle style="fill:#000" r="20" cy="100" cx="550"/><circle style="fill:#FFF" r="18" cy="100" cx="550"/><text style="fill:#000;" text-anchor="middle" y="110" x="550">$</text><path style="stroke: #000; stroke-width: 2.25px; fill: none; marker-end: url(#markerArrow145);" d="M160,125 Q300,200 440,125"/><path style="stroke: #000; stroke-width: 2.25px; fill: none; marker-end: url(#markerArrow145);" d="M160,75 Q250,0 340,75"/></svg>