<?xml version="1.0" standalone="no"?>
<svg preserveAspectRatio="xMidYMid slice" viewBox="29.5 -6 1041 198" version="1.1" xmlns="http://www.w3.org/2000/svg" style="width:1041px;height:198px"><style type="text/css">svg * {color:#000;font-family:Times New Roman,serif;line-height:22px;font-style:normal;font-weight:500;}svg > text, svg > text > tspan {font-size:30px;}svg > text.prefix, svg > text.prefix > tspan {font-size:15px;}svg > text > tspan.d {font-size:20px;}svg > text.prefix > tspan.d {font-size:10px;}svg > text > tspan.u {font-size:20px;}svg > text.prefix > tspan.u {font-size:10px;}</style><rect style="fill:#FFF" height="198" width="1041" y="-6" x="29.5"/><defs><marker orient="auto" refY="7" refX="4" markerHeight="13" markerWidth="13" id="markerArrow795"><path style="fill:#000;" d="M2,7 L2,9.5 L5,7 L2,4.5 L2,7"/></marker><marker orient="auto" refY="7" refX="4" markerHeight="13" markerWidth="13" id="markerArrow795_extra"><path style="fill:#C00;" d="M2,7 L2,9.5 L5,7 L2,4.5 L2,7"/></marker></defs><circle style="fill:#000" r="20" cy="100" cx="50"/><circle style="fill:#FFF" r="18" cy="100" cx="50"/><text style="fill:#000;" text-anchor="middle" y="110" x="50"><tspan style="font-weight:bold;">#</tspan></text><text style="fill:#000" text-anchor="middle" y="78" x="50" class="prefix"><tspan style="font-weight:bold;">#</tspan></text><path style="stroke: #000; stroke-width: 2.25px; fill: none; marker-end: url(#markerArrow795);" d="M75,100 L125,100"/><circle style="fill:#000" r="20" cy="100" cx="150"/><circle style="fill:#A0A" r="18" cy="100" cx="150"/><text style="fill:#FFA;" text-anchor="middle" y="110" x="150">G</text><text style="fill:#000" text-anchor="middle" y="78" x="150" class="prefix">GA</text><path style="stroke: #C00; stroke-width: 2.25px; fill: none; marker-end: url(#markerArrow795_extra);" d="M175,100 L225,100"/><circle style="fill:#000" r="20" cy="100" cx="250"/><circle style="fill:#C00" r="18" cy="100" cx="250"/><text style="fill:#FFF;" text-anchor="middle" y="110" x="250">A</text><text style="fill:#000" text-anchor="middle" y="78" x="250" class="prefix">ACG</text><path style="stroke: #000; stroke-width: 2.25px; fill: none; marker-end: url(#markerArrow795);" d="M275,100 L325,100"/><circle style="fill:#000" r="20" cy="100" cx="350"/><circle style="fill:#FFF" r="18" cy="100" cx="350"/><text style="fill:#000;" text-anchor="middle" y="110" x="350">C</text><text style="fill:#000" text-anchor="middle" y="78" x="350" class="prefix">CG</text><path style="stroke: #000; stroke-width: 2.25px; fill: none; marker-end: url(#markerArrow795);" d="M375,100 L425,100"/><circle style="fill:#000" r="20" cy="100" cx="450"/><circle style="fill:#FFF" r="18" cy="100" cx="450"/><text style="fill:#000;" text-anchor="middle" y="110" x="450">G</text><text style="fill:#000" text-anchor="middle" y="78" x="450" class="prefix">GT</text><path style="stroke: #000; stroke-width: 2.25px; fill: none; marker-end: url(#markerArrow795);" d="M475,100 L525,100"/><circle style="fill:#000" r="20" cy="100" cx="550"/><circle style="fill:#FFF" r="18" cy="100" cx="550"/><text style="fill:#000;" text-anchor="middle" y="110" x="550">T</text><text style="fill:#000" text-anchor="middle" y="78" x="550" class="prefix">TA</text><path style="stroke: #000; stroke-width: 2.25px; fill: none; marker-end: url(#markerArrow795);" d="M575,100 L625,100"/><circle style="fill:#000" r="20" cy="100" cx="650"/><circle style="fill:#FFF" r="18" cy="100" cx="650"/><text style="fill:#000;" text-anchor="middle" y="110" x="650">A</text><text style="fill:#000" text-anchor="middle" y="78" x="650" class="prefix">ACC</text><path style="stroke: #000; stroke-width: 2.25px; fill: none; marker-end: url(#markerArrow795);" d="M675,100 L725,100"/><circle style="fill:#000" r="20" cy="100" cx="750"/><circle style="fill:#FFF" r="18" cy="100" cx="750"/><text style="fill:#000;" text-anchor="middle" y="110" x="750">C</text><text style="fill:#000" text-anchor="middle" y="78" x="750" class="prefix">CC</text><path style="stroke: #000; stroke-width: 2.25px; fill: none; marker-end: url(#markerArrow795);" d="M775,100 L825,100"/><circle style="fill:#000" r="20" cy="100" cx="850"/><circle style="fill:#FFF" r="18" cy="100" cx="850"/><text style="fill:#000;" text-anchor="middle" y="110" x="850">C</text><text style="fill:#000" text-anchor="middle" y="78" x="850" class="prefix">CT$</text><path style="stroke: #000; stroke-width: 2.25px; fill: none; marker-end: url(#markerArrow795);" d="M875,100 L925,100"/><circle style="fill:#000" r="20" cy="100" cx="950"/><circle style="fill:#FFF" r="18" cy="100" cx="950"/><text style="fill:#000;" text-anchor="middle" y="110" x="950">T</text><text style="fill:#000" text-anchor="middle" y="78" x="950" class="prefix">T$</text><path style="stroke: #000; stroke-width: 2.25px; fill: none; marker-end: url(#markerArrow795);" d="M975,100 L1025,100"/><circle style="fill:#000" r="20" cy="100" cx="1050"/><circle style="fill:#FFF" r="18" cy="100" cx="1050"/><text style="fill:#000;" text-anchor="middle" y="110" x="1050">$</text><text style="fill:#000" text-anchor="middle" y="78" x="1050" class="prefix">$</text><circle style="fill:#000" r="20" cy="170" cx="250"/><circle style="fill:#C00" r="18" cy="170" cx="250"/><text style="fill:#FFF;" text-anchor="middle" y="180" x="250">A</text><text style="fill:#000" text-anchor="middle" y="148" x="250" class="prefix">ACTA</text><path style="stroke: #000; stroke-width: 2.25px; fill: none; marker-end: url(#markerArrow795);" d="M275,170 L425,170"/><circle style="fill:#000" r="20" cy="170" cx="450"/><circle style="fill:#FFF" r="18" cy="170" cx="450"/><text style="fill:#000;" text-anchor="middle" y="180" x="450">C</text><text style="fill:#000" text-anchor="middle" y="148" x="450" class="prefix">CTA</text><path style="stroke: #000; stroke-width: 2.25px; fill: none; marker-end: url(#markerArrow795);" d="M475,170 Q540,170 547,125"/><path style="stroke: #C00; stroke-width: 2.25px; fill: none; marker-end: url(#markerArrow795_extra);" d="M153,125 Q160,170 225,170"/><circle style="fill:#000" r="20" cy="30" cx="225"/><circle style="fill:#C00" r="18" cy="30" cx="225"/><text style="fill:#FFF;" text-anchor="middle" y="40" x="225">A</text><text style="fill:#000" text-anchor="middle" y="8" x="225" class="prefix">ATG</text><path style="stroke: #000; stroke-width: 2.25px; fill: none; marker-end: url(#markerArrow795);" d="M250,30 L350,30"/><circle style="fill:#000" r="20" cy="30" cx="375"/><circle style="fill:#FFF" r="18" cy="30" cx="375"/><text style="fill:#000;" text-anchor="middle" y="40" x="375">T</text><text style="fill:#000" text-anchor="middle" y="8" x="375" class="prefix">TG</text><path style="stroke: #000; stroke-width: 2.25px; fill: none; marker-end: url(#markerArrow795);" d="M400,30 Q440,30 447,65"/><path style="stroke: #C00; stroke-width: 2.25px; fill: none; marker-end: url(#markerArrow795_extra);" d="M153,65 Q160,30 200,30"/><circle style="fill:#000" r="20" cy="170" cx="700"/><circle style="fill:#FFF" r="18" cy="170" cx="700"/><text style="fill:#000;" text-anchor="middle" y="180" x="700">A</text><text style="fill:#000" text-anchor="middle" y="148" x="700" class="prefix">ACT$</text><path style="stroke: #000; stroke-width: 2.25px; fill: none; marker-end: url(#markerArrow795);" d="M725,170 Q840,170 847,125"/><path style="stroke: #000; stroke-width: 2.25px; fill: none; marker-end: url(#markerArrow795);" d="M553,125 Q560,170 675,170"/><circle style="fill:#000" r="20" cy="30" cx="750"/><circle style="fill:#FFF" r="18" cy="30" cx="750"/><text style="fill:#000;" text-anchor="middle" y="40" x="750">A</text><text style="fill:#000" text-anchor="middle" y="8" x="750" class="prefix">AT$</text><path style="stroke: #000; stroke-width: 2.25px; fill: none; marker-end: url(#markerArrow795);" d="M775,30 Q940,30 947,65"/><path style="stroke: #000; stroke-width: 2.25px; fill: none; marker-end: url(#markerArrow795);" d="M553,65 Q560,30 725,30"/></svg>