<?xml version="1.0" standalone="no"?>
<svg preserveAspectRatio="xMidYMid slice" viewBox="79.5 35.5 1041 156.5" version="1.1" xmlns="http://www.w3.org/2000/svg" style="width:1041px;height:156.5px"><style type="text/css">svg * {color:#000;font-family:Times New Roman,serif;line-height:22px;font-style:normal;font-weight:500;}svg > text, svg > text > tspan {font-size:30px;}svg > text.prefix, svg > text.prefix > tspan {font-size:15px;}svg > text > tspan.d {font-size:20px;}svg > text.prefix > tspan.d {font-size:10px;}svg > text > tspan.u {font-size:20px;}svg > text.prefix > tspan.u {font-size:10px;}</style><rect style="fill:#FFF" height="156.5" width="1041" y="35.5" x="79.5"/><defs><marker orient="auto" refY="7" refX="4" markerHeight="13" markerWidth="13" id="markerArrow155"><path style="fill:#000;" d="M2,7 L2,9.5 L5,7 L2,4.5 L2,7"/></marker><marker orient="auto" refY="7" refX="4" markerHeight="13" markerWidth="13" id="markerArrow155_extra"><path style="fill:#C00;" d="M2,7 L2,9.5 L5,7 L2,4.5 L2,7"/></marker></defs><circle style="fill:#000" r="20" cy="100" cx="150"/><circle style="fill:#FFF" r="18" cy="100" cx="150"/><text style="fill:#000;" text-anchor="middle" y="110" x="150">G</text><path style="stroke: #000; stroke-width: 2.25px; fill: none; marker-end: url(#markerArrow155);" d="M175,100 L225,100"/><circle style="fill:#000" r="20" cy="100" cx="250"/><circle style="fill:#FFF" r="18" cy="100" cx="250"/><text style="fill:#000;" text-anchor="middle" y="110" x="250">A</text><path style="stroke: #000; stroke-width: 2.25px; fill: none; marker-end: url(#markerArrow155);" d="M275,100 L325,100"/><circle style="fill:#000" r="20" cy="100" cx="350"/><circle style="fill:#FFF" r="18" cy="100" cx="350"/><text style="fill:#000;" text-anchor="middle" y="110" x="350">C</text><path style="stroke: #000; stroke-width: 2.25px; fill: none; marker-end: url(#markerArrow155);" d="M375,100 L425,100"/><circle style="fill:#000" r="20" cy="100" cx="450"/><circle style="fill:#FFF" r="18" cy="100" cx="450"/><text style="fill:#000;" text-anchor="middle" y="110" x="450">G</text><path style="stroke: #000; stroke-width: 2.25px; fill: none; marker-end: url(#markerArrow155);" d="M475,100 L525,100"/><circle style="fill:#000" r="20" cy="100" cx="550"/><circle style="fill:#FFF" r="18" cy="100" cx="550"/><text style="fill:#000;" text-anchor="middle" y="110" x="550">T</text><path style="stroke: #000; stroke-width: 2.25px; fill: none; marker-end: url(#markerArrow155);" d="M575,100 L625,100"/><circle style="fill:#000" r="20" cy="100" cx="650"/><circle style="fill:#FFF" r="18" cy="100" cx="650"/><text style="fill:#000;" text-anchor="middle" y="110" x="650">A</text><path style="stroke: #000; stroke-width: 2.25px; fill: none; marker-end: url(#markerArrow155);" d="M675,100 L725,100"/><circle style="fill:#000" r="20" cy="100" cx="750"/><circle style="fill:#FFF" r="18" cy="100" cx="750"/><text style="fill:#000;" text-anchor="middle" y="110" x="750">C</text><path style="stroke: #000; stroke-width: 2.25px; fill: none; marker-end: url(#markerArrow155);" d="M775,100 L825,100"/><circle style="fill:#000" r="20" cy="100" cx="850"/><circle style="fill:#FFF" r="18" cy="100" cx="850"/><text style="fill:#000;" text-anchor="middle" y="110" x="850">C</text><path style="stroke: #000; stroke-width: 2.25px; fill: none; marker-end: url(#markerArrow155);" d="M875,100 L925,100"/><circle style="fill:#000" r="20" cy="100" cx="950"/><circle style="fill:#FFF" r="18" cy="100" cx="950"/><text style="fill:#000;" text-anchor="middle" y="110" x="950">T</text><path style="stroke: #000; stroke-width: 2.25px; fill: none; marker-end: url(#markerArrow155);" d="M975,100 L1025,100"/><circle style="fill:#000" r="20" cy="100" cx="1050"/><circle style="fill:#FFF" r="18" cy="100" cx="1050"/><text style="fill:#000;" text-anchor="middle" y="110" x="1050">G</text><circle style="fill:#000" r="20" cy="170" cx="350"/><circle style="fill:#FFF" r="18" cy="170" cx="350"/><text style="fill:#000;" text-anchor="middle" y="180" x="350">T</text><path style="stroke: #000; stroke-width: 2.25px; fill: none; marker-end: url(#markerArrow155);" d="M375,170 Q440,170 447,125"/><path style="stroke: #000; stroke-width: 2.25px; fill: none; marker-end: url(#markerArrow155);" d="M253,125 Q260,170 325,170"/><path style="stroke: #000; stroke-width: 2.25px; fill: none; marker-end: url(#markerArrow155);" d="M360,75 Q450,0 540,75"/><path style="stroke: #000; stroke-width: 2.25px; fill: none; marker-end: url(#markerArrow155);" d="M660,125 Q850,200 1040,125"/><path style="stroke: #000; stroke-width: 2.25px; fill: none; marker-end: url(#markerArrow155);" d="M660,75 Q750,0 840,75"/></svg>