<?xml version="1.0" standalone="no"?>
<svg preserveAspectRatio="xMidYMid slice" viewBox="29.5 -6 1041 198" version="1.1" xmlns="http://www.w3.org/2000/svg" style="width:1041px;height:198px"><style type="text/css">svg * {color:#000;font-family:Times New Roman,serif;line-height:22px;font-style:normal;font-weight:500;}svg > text, svg > text > tspan {font-size:30px;}svg > text.prefix, svg > text.prefix > tspan {font-size:15px;}svg > text > tspan.d {font-size:20px;}svg > text.prefix > tspan.d {font-size:10px;}svg > text > tspan.u {font-size:20px;}svg > text.prefix > tspan.u {font-size:10px;}</style><rect style="fill:#FFF" height="198" width="1041" y="-6" x="29.5"/><defs><marker orient="auto" refY="7" refX="4" markerHeight="13" markerWidth="13" id="markerArrow476"><path style="fill:#000;" d="M2,7 L2,9.5 L5,7 L2,4.5 L2,7"/></marker><marker orient="auto" refY="7" refX="4" markerHeight="13" markerWidth="13" id="markerArrow476_extra"><path style="fill:#C00;" d="M2,7 L2,9.5 L5,7 L2,4.5 L2,7"/></marker></defs><circle style="fill:#000" r="20" cy="100" cx="50"/><circle style="fill:#FFF" r="18" cy="100" cx="50"/><text style="fill:#000;" text-anchor="middle" y="110" x="50"><tspan style="font-weight:bold;">#</tspan></text><text style="fill:#000" text-anchor="middle" y="78" x="50" class="prefix"><tspan style="font-weight:bold;">#</tspan></text><path style="stroke: #000; stroke-width: 2.25px; fill: none; marker-end: url(#markerArrow476);" d="M75,100 L125,100"/><circle style="fill:#000" r="20" cy="100" cx="150"/><circle style="fill:#FFF" r="18" cy="100" cx="150"/><text style="fill:#000;" text-anchor="middle" y="110" x="150">G</text><text style="fill:#000" text-anchor="middle" y="78" x="150" class="prefix">GCT</text><path style="stroke: #000; stroke-width: 2.25px; fill: none; marker-end: url(#markerArrow476);" d="M175,100 L225,100"/><circle style="fill:#000" r="20" cy="100" cx="250"/><circle style="fill:#A0A" r="18" cy="100" cx="250"/><text style="fill:#FFA;" text-anchor="middle" y="110" x="250">C</text><text style="fill:#000" text-anchor="middle" y="78" x="250" class="prefix">CT</text><path style="stroke: #000; stroke-width: 2.25px; fill: none; marker-end: url(#markerArrow476);" d="M275,100 L325,100"/><circle style="fill:#000" r="20" cy="100" cx="350"/><circle style="fill:#FFF" r="18" cy="100" cx="350"/><text style="fill:#000;" text-anchor="middle" y="110" x="350">T</text><text style="fill:#000" text-anchor="middle" y="78" x="350" class="prefix">TGGC</text><path style="stroke: #000; stroke-width: 2.25px; fill: none; marker-end: url(#markerArrow476);" d="M375,100 L425,100"/><circle style="fill:#000" r="20" cy="100" cx="450"/><circle style="fill:#FFF" r="18" cy="100" cx="450"/><text style="fill:#000;" text-anchor="middle" y="110" x="450">G</text><text style="fill:#000" text-anchor="middle" y="78" x="450" class="prefix">GGC</text><path style="stroke: #000; stroke-width: 2.25px; fill: none; marker-end: url(#markerArrow476);" d="M475,100 L525,100"/><circle style="fill:#000" r="20" cy="100" cx="550"/><circle style="fill:#00BF00" r="18" cy="100" cx="550"/><text style="fill:#FFF;" text-anchor="middle" y="110" x="550">G</text><text style="fill:#000" text-anchor="middle" y="78" x="550" class="prefix">GCG</text><path style="stroke: #000; stroke-width: 2.25px; fill: none; marker-end: url(#markerArrow476);" d="M575,100 L625,100"/><circle style="fill:#000" r="20" cy="100" cx="650"/><circle style="fill:#FFF" r="18" cy="100" cx="650"/><text style="fill:#000;" text-anchor="middle" y="110" x="650">C</text><text style="fill:#000" text-anchor="middle" y="78" x="650" class="prefix">CG</text><path style="stroke: #000; stroke-width: 2.25px; fill: none; marker-end: url(#markerArrow476);" d="M675,100 L725,100"/><circle style="fill:#000" r="20" cy="100" cx="750"/><circle style="fill:#FFF" r="18" cy="100" cx="750"/><text style="fill:#000;" text-anchor="middle" y="110" x="750">G</text><text style="fill:#000" text-anchor="middle" y="78" x="750" class="prefix">GA</text><path style="stroke: #000; stroke-width: 2.25px; fill: none; marker-end: url(#markerArrow476);" d="M775,100 L825,100"/><circle style="fill:#000" r="20" cy="100" cx="850"/><circle style="fill:#FFF" r="18" cy="100" cx="850"/><text style="fill:#000;" text-anchor="middle" y="110" x="850">A</text><text style="fill:#000" text-anchor="middle" y="78" x="850" class="prefix">A</text><path style="stroke: #000; stroke-width: 2.25px; fill: none; marker-end: url(#markerArrow476);" d="M875,100 L925,100"/><circle style="fill:#000" r="20" cy="100" cx="950"/><circle style="fill:#FFF" r="18" cy="100" cx="950"/><text style="fill:#000;" text-anchor="middle" y="110" x="950">G</text><text style="fill:#000" text-anchor="middle" y="78" x="950" class="prefix">G$</text><path style="stroke: #000; stroke-width: 2.25px; fill: none; marker-end: url(#markerArrow476);" d="M975,100 L1025,100"/><circle style="fill:#000" r="20" cy="100" cx="1050"/><circle style="fill:#FFF" r="18" cy="100" cx="1050"/><text style="fill:#000;" text-anchor="middle" y="110" x="1050">$</text><text style="fill:#000" text-anchor="middle" y="78" x="1050" class="prefix">$</text><circle style="fill:#000" r="20" cy="170" cx="333.33333333333337"/><circle style="fill:#FFF" r="18" cy="170" cx="333.33333333333337"/><text style="fill:#000;" text-anchor="middle" y="180" x="333.33333333333337">T</text><text style="fill:#000" text-anchor="middle" y="148" x="333.33333333333337" class="prefix">TGGG</text><path style="stroke: #000; stroke-width: 2.25px; fill: none; marker-end: url(#markerArrow476);" d="M358.33333333333337,170 L475,170"/><circle style="fill:#000" r="20" cy="170" cx="500"/><circle style="fill:#FFF" r="18" cy="170" cx="500"/><text style="fill:#000;" text-anchor="middle" y="180" x="500">G</text><text style="fill:#000" text-anchor="middle" y="148" x="500" class="prefix">GGG</text><path style="stroke: #000; stroke-width: 2.25px; fill: none; marker-end: url(#markerArrow476);" d="M525,170 L641.6666666666666,170"/><circle style="fill:#000" r="20" cy="170" cx="666.6666666666666"/><circle style="fill:#FFF" r="18" cy="170" cx="666.6666666666666"/><text style="fill:#000;" text-anchor="middle" y="180" x="666.6666666666666">G</text><text style="fill:#000" text-anchor="middle" y="148" x="666.6666666666666" class="prefix">GGA</text><path style="stroke: #000; stroke-width: 2.25px; fill: none; marker-end: url(#markerArrow476);" d="M691.6666666666666,170 Q740,170 747,125"/><path style="stroke: #000; stroke-width: 2.25px; fill: none; marker-end: url(#markerArrow476);" d="M253,125 Q260,170 308.33333333333337,170"/><circle style="fill:#000" r="20" cy="30" cx="325"/><circle style="fill:#0080FF" r="18" cy="30" cx="325"/><text style="fill:#FFF;" text-anchor="middle" y="40" x="325">T</text><text style="fill:#000" text-anchor="middle" y="8" x="325" class="prefix">TT</text><path style="stroke: #000; stroke-width: 2.25px; fill: none; marker-end: url(#markerArrow476);" d="M350,30 L450,30"/><circle style="fill:#000" r="20" cy="30" cx="475"/><circle style="fill:#C00" r="18" cy="30" cx="475"/><text style="fill:#FFF;" text-anchor="middle" y="40" x="475">T</text><text style="fill:#000" text-anchor="middle" y="8" x="475" class="prefix">TGC</text><path style="stroke: #000; stroke-width: 2.25px; fill: none; marker-end: url(#markerArrow476);" d="M500,30 Q540,30 547,65"/><path style="stroke: #000; stroke-width: 2.25px; fill: none; marker-end: url(#markerArrow476);" d="M253,65 Q260,30 300,30"/></svg>