<?xml version="1.0" standalone="no"?>
<svg preserveAspectRatio="xMidYMid slice" viewBox="-70.5 8 1041 184" version="1.1" xmlns="http://www.w3.org/2000/svg" style="width:1041px;height:184px"><style type="text/css">svg * {color:#000;font-family:Times New Roman,serif;line-height:22px;font-style:normal;font-weight:500;}svg > text, svg > text > tspan {font-size:30px;}svg > text.prefix, svg > text.prefix > tspan {font-size:15px;}svg > text > tspan.d {font-size:20px;}svg > text.prefix > tspan.d {font-size:10px;}svg > text > tspan.u {font-size:20px;}svg > text.prefix > tspan.u {font-size:10px;}</style><rect style="fill:#FFF" height="184" width="1041" y="8" x="-70.5"/><defs><marker orient="auto" refY="7" refX="4" markerHeight="13" markerWidth="13" id="markerArrow1140"><path style="fill:#000;" d="M2,7 L2,9.5 L5,7 L2,4.5 L2,7"/></marker><marker orient="auto" refY="7" refX="4" markerHeight="13" markerWidth="13" id="markerArrow1140_extra"><path style="fill:#C00;" d="M2,7 L2,9.5 L5,7 L2,4.5 L2,7"/></marker></defs><circle style="fill:#000" r="20" cy="100" cx="50"/><circle style="fill:#FFF" r="18" cy="100" cx="50"/><text style="fill:#000;" text-anchor="middle" y="110" x="50"><tspan style="font-weight:bold;">#</tspan></text><path style="stroke: #000; stroke-width: 2.25px; fill: none; marker-end: url(#markerArrow1140);" d="M75,100 L125,100"/><circle style="fill:#000" r="20" cy="100" cx="150"/><circle style="fill:#FFF" r="18" cy="100" cx="150"/><text style="fill:#000;" text-anchor="middle" y="110" x="150">A</text><path style="stroke: #000; stroke-width: 2.25px; fill: none; marker-end: url(#markerArrow1140);" d="M175,100 L225,100"/><circle style="fill:#000" r="20" cy="100" cx="250"/><circle style="fill:#FFF" r="18" cy="100" cx="250"/><text style="fill:#000;" text-anchor="middle" y="110" x="250">T</text><path style="stroke: #000; stroke-width: 2.25px; fill: none; marker-end: url(#markerArrow1140);" d="M275,100 L325,100"/><circle style="fill:#000" r="20" cy="100" cx="350"/><circle style="fill:#FFF" r="18" cy="100" cx="350"/><text style="fill:#000;" text-anchor="middle" y="110" x="350">C</text><path style="stroke: #000; stroke-width: 2.25px; fill: none; marker-end: url(#markerArrow1140);" d="M375,100 L425,100"/><circle style="fill:#000" r="20" cy="100" cx="450"/><circle style="fill:#FFF" r="18" cy="100" cx="450"/><text style="fill:#000;" text-anchor="middle" y="110" x="450">T</text><path style="stroke: #000; stroke-width: 2.25px; fill: none; marker-end: url(#markerArrow1140);" d="M475,100 L525,100"/><circle style="fill:#000" r="20" cy="100" cx="550"/><circle style="fill:#FFF" r="18" cy="100" cx="550"/><text style="fill:#000;" text-anchor="middle" y="110" x="550">C</text><path style="stroke: #000; stroke-width: 2.25px; fill: none; marker-end: url(#markerArrow1140);" d="M575,100 L625,100"/><circle style="fill:#000" r="20" cy="100" cx="650"/><circle style="fill:#FFF" r="18" cy="100" cx="650"/><text style="fill:#000;" text-anchor="middle" y="110" x="650">A</text><path style="stroke: #000; stroke-width: 2.25px; fill: none; marker-end: url(#markerArrow1140);" d="M675,100 L725,100"/><circle style="fill:#000" r="20" cy="100" cx="750"/><circle style="fill:#FFF" r="18" cy="100" cx="750"/><text style="fill:#000;" text-anchor="middle" y="110" x="750">G</text><path style="stroke: #000; stroke-width: 2.25px; fill: none; marker-end: url(#markerArrow1140);" d="M775,100 L825,100"/><circle style="fill:#000" r="20" cy="100" cx="850"/><circle style="fill:#FFF" r="18" cy="100" cx="850"/><text style="fill:#000;" text-anchor="middle" y="110" x="850">$</text><circle style="fill:#000" r="20" cy="170" cx="225"/><circle style="fill:#FFF" r="18" cy="170" cx="225"/><text style="fill:#000;" text-anchor="middle" y="180" x="225">G</text><path style="stroke: #000; stroke-width: 2.25px; fill: none; marker-end: url(#markerArrow1140);" d="M250,170 L350,170"/><circle style="fill:#000" r="20" cy="170" cx="375"/><circle style="fill:#FFF" r="18" cy="170" cx="375"/><text style="fill:#000;" text-anchor="middle" y="180" x="375">G</text><path style="stroke: #000; stroke-width: 2.25px; fill: none; marker-end: url(#markerArrow1140);" d="M400,170 Q440,170 447,125"/><path style="stroke: #000; stroke-width: 2.25px; fill: none; marker-end: url(#markerArrow1140);" d="M153,125 Q160,170 200,170"/><circle style="fill:#000" r="20" cy="30" cx="316.66666666666663"/><circle style="fill:#FFF" r="18" cy="30" cx="316.66666666666663"/><text style="fill:#000;" text-anchor="middle" y="40" x="316.66666666666663">C</text><path style="stroke: #000; stroke-width: 2.25px; fill: none; marker-end: url(#markerArrow1140);" d="M341.66666666666663,30 L425,30"/><circle style="fill:#000" r="20" cy="30" cx="450"/><circle style="fill:#FFF" r="18" cy="30" cx="450"/><text style="fill:#000;" text-anchor="middle" y="40" x="450">T</text><path style="stroke: #000; stroke-width: 2.25px; fill: none; marker-end: url(#markerArrow1140);" d="M475,30 L558.3333333333334,30"/><circle style="fill:#000" r="20" cy="30" cx="583.3333333333334"/><circle style="fill:#FFF" r="18" cy="30" cx="583.3333333333334"/><text style="fill:#000;" text-anchor="middle" y="40" x="583.3333333333334">A</text><path style="stroke: #000; stroke-width: 2.25px; fill: none; marker-end: url(#markerArrow1140);" d="M608.3333333333334,30 Q640,30 647,75"/><path style="stroke: #000; stroke-width: 2.25px; fill: none; marker-end: url(#markerArrow1140);" d="M253,75 Q260,30 291.66666666666663,30"/><circle style="fill:#000" r="20" cy="170" cx="650"/><circle style="fill:#FFF" r="18" cy="170" cx="650"/><text style="fill:#000;" text-anchor="middle" y="180" x="650">T</text><path style="stroke: #000; stroke-width: 2.25px; fill: none; marker-end: url(#markerArrow1140);" d="M675,170 Q740,170 747,125"/><path style="stroke: #000; stroke-width: 2.25px; fill: none; marker-end: url(#markerArrow1140);" d="M553,125 Q560,170 625,170"/><path style="stroke: #000; stroke-width: 2.25px; fill: none; marker-end: url(#markerArrow1140);" d="M385,145 Q512.5,70 640,145"/></svg>