<?xml version="1.0" standalone="no"?>
<svg preserveAspectRatio="xMidYMid slice" viewBox="-270.5 78 1041 114" version="1.1" xmlns="http://www.w3.org/2000/svg" style="width:1041px;height:114px"><style type="text/css">svg * {color:#000;font-family:Times New Roman,serif;line-height:22px;font-style:normal;font-weight:500;}svg > text, svg > text > tspan {font-size:30px;}svg > text.prefix, svg > text.prefix > tspan {font-size:15px;}svg > text > tspan.d {font-size:20px;}svg > text.prefix > tspan.d {font-size:10px;}svg > text > tspan.u {font-size:20px;}svg > text.prefix > tspan.u {font-size:10px;}</style><rect style="fill:#FFF" height="114" width="1041" y="78" x="-270.5"/><defs><marker orient="auto" refY="7" refX="4" markerHeight="13" markerWidth="13" id="markerArrow893"><path style="fill:#000;" d="M2,7 L2,9.5 L5,7 L2,4.5 L2,7"/></marker><marker orient="auto" refY="7" refX="4" markerHeight="13" markerWidth="13" id="markerArrow893_extra"><path style="fill:#C00;" d="M2,7 L2,9.5 L5,7 L2,4.5 L2,7"/></marker></defs><circle style="fill:#000" r="20" cy="100" cx="50"/><circle style="fill:#FFF" r="18" cy="100" cx="50"/><text style="fill:#000;" text-anchor="middle" y="110" x="50"><tspan style="font-weight:bold;">#</tspan></text><path style="stroke: #000; stroke-width: 2.25px; fill: none; marker-end: url(#markerArrow893);" d="M75,100 L125,100"/><circle style="fill:#000" r="20" cy="100" cx="150"/><circle style="fill:#FFF" r="18" cy="100" cx="150"/><text style="fill:#000;" text-anchor="middle" y="110" x="150">G</text><path style="stroke: #000; stroke-width: 2.25px; fill: none; marker-end: url(#markerArrow893);" d="M175,100 L225,100"/><circle style="fill:#000" r="20" cy="100" cx="250"/><circle style="fill:#FFF" r="18" cy="100" cx="250"/><text style="fill:#000;" text-anchor="middle" y="110" x="250">T</text><path style="stroke: #000; stroke-width: 2.25px; fill: none; marker-end: url(#markerArrow893);" d="M275,100 L325,100"/><circle style="fill:#000" r="20" cy="100" cx="350"/><circle style="fill:#FFF" r="18" cy="100" cx="350"/><text style="fill:#000;" text-anchor="middle" y="110" x="350">C</text><path style="stroke: #000; stroke-width: 2.25px; fill: none; marker-end: url(#markerArrow893);" d="M375,100 L425,100"/><circle style="fill:#000" r="20" cy="100" cx="450"/><circle style="fill:#FFF" r="18" cy="100" cx="450"/><text style="fill:#000;" text-anchor="middle" y="110" x="450">$</text><circle style="fill:#000" r="20" cy="170" cx="250"/><circle style="fill:#FFF" r="18" cy="170" cx="250"/><text style="fill:#000;" text-anchor="middle" y="180" x="250">C</text><path style="stroke: #000; stroke-width: 2.25px; fill: none; marker-end: url(#markerArrow893);" d="M275,170 Q340,170 347,125"/><path style="stroke: #000; stroke-width: 2.25px; fill: none; marker-end: url(#markerArrow893);" d="M153,125 Q160,170 225,170"/></svg>