<?xml version="1.0" standalone="no"?>
<svg preserveAspectRatio="xMidYMid slice" viewBox="-220.5 64 1041 128" version="1.1" xmlns="http://www.w3.org/2000/svg" style="width:1041px;height:128px"><style type="text/css">svg * {color:#000;font-family:Times New Roman,serif;line-height:22px;font-style:normal;font-weight:500;}svg > text, svg > text > tspan {font-size:30px;}svg > text.prefix, svg > text.prefix > tspan {font-size:15px;}svg > text > tspan.d {font-size:20px;}svg > text.prefix > tspan.d {font-size:10px;}svg > text > tspan.u {font-size:20px;}svg > text.prefix > tspan.u {font-size:10px;}</style><rect style="fill:#FFF" height="128" width="1041" y="64" x="-220.5"/><defs><marker orient="auto" refY="7" refX="4" markerHeight="13" markerWidth="13" id="markerArrow358"><path style="fill:#000;" d="M2,7 L2,9.5 L5,7 L2,4.5 L2,7"/></marker><marker orient="auto" refY="7" refX="4" markerHeight="13" markerWidth="13" id="markerArrow358_extra"><path style="fill:#C00;" d="M2,7 L2,9.5 L5,7 L2,4.5 L2,7"/></marker></defs><circle style="fill:#000" r="20" cy="100" cx="50"/><circle style="fill:#FFF" r="18" cy="100" cx="50"/><text style="fill:#000;" text-anchor="middle" y="110" x="50"><tspan style="font-weight:bold;">#</tspan></text><text style="fill:#000" text-anchor="middle" y="78" x="50" class="prefix"><tspan style="font-weight:bold;">#</tspan></text><circle style="fill:#000" r="20" cy="100" cx="150"/><circle style="fill:#FFF" r="18" cy="100" cx="150"/><text style="fill:#000;" text-anchor="middle" y="110" x="150">A</text><text style="fill:#000" text-anchor="middle" y="78" x="150" class="prefix">AA</text><path style="stroke: #000; stroke-width: 2.25px; fill: none; marker-end: url(#markerArrow358);" d="M75,100 L125,100"/><circle style="fill:#000" r="20" cy="100" cx="250"/><circle style="fill:#FFF" r="18" cy="100" cx="250"/><text style="fill:#000;" text-anchor="middle" y="110" x="250">A</text><text style="fill:#000" text-anchor="middle" y="78" x="250" class="prefix">AC</text><path style="stroke: #000; stroke-width: 2.25px; fill: none; marker-end: url(#markerArrow358);" d="M175,100 L225,100"/><circle style="fill:#000" r="20" cy="100" cx="350"/><circle style="fill:#FFF" r="18" cy="100" cx="350"/><text style="fill:#000;" text-anchor="middle" y="110" x="350">C</text><text style="fill:#000" text-anchor="middle" y="78" x="350" class="prefix">C</text><path style="stroke: #000; stroke-width: 2.25px; fill: none; marker-end: url(#markerArrow358);" d="M275,100 L325,100"/><circle style="fill:#000" r="20" cy="100" cx="450"/><circle style="fill:#FFF" r="18" cy="100" cx="450"/><text style="fill:#000;" text-anchor="middle" y="110" x="450">T</text><text style="fill:#000" text-anchor="middle" y="78" x="450" class="prefix">T<tspan>$</tspan><tspan dy="0.2" class="d">0</tspan><tspan>#</tspan><tspan dy="0.2" class="d">0</tspan>A</text><path style="stroke: #000; stroke-width: 2.25px; fill: none; marker-end: url(#markerArrow358);" d="M375,100 L425,100"/><circle style="fill:#000" r="20" cy="100" cx="550"/><circle style="fill:#FFF" r="18" cy="100" cx="550"/><text style="fill:#000;" text-anchor="middle" y="110" x="550">$</text><text style="fill:#000" text-anchor="middle" y="78" x="550" class="prefix">$</text><path style="stroke: #000; stroke-width: 2.25px; fill: none; marker-end: url(#markerArrow358);" d="M475,100 L525,100"/><circle style="fill:#000" r="20" cy="170" cx="225"/><circle style="fill:#FFF" r="18" cy="170" cx="225"/><text style="fill:#000;" text-anchor="middle" y="180" x="225">A</text><text style="fill:#000" text-anchor="middle" y="148" x="225" class="prefix">AT</text><path style="stroke: #000; stroke-width: 2.25px; fill: none; marker-end: url(#markerArrow358);" d="M153,125 Q160,170 200,170"/><circle style="fill:#000" r="20" cy="170" cx="375"/><circle style="fill:#FFF" r="18" cy="170" cx="375"/><text style="fill:#000;" text-anchor="middle" y="180" x="375">T</text><text style="fill:#000" text-anchor="middle" y="148" x="375" class="prefix">TT</text><path style="stroke: #000; stroke-width: 2.25px; fill: none; marker-end: url(#markerArrow358);" d="M250,170 L350,170"/><path style="stroke: #000; stroke-width: 2.25px; fill: none; marker-end: url(#markerArrow358);" d="M400,170 Q440,170 447,125"/></svg>