<?xml version="1.0" standalone="no"?>
<svg preserveAspectRatio="xMidYMid slice" viewBox="-20.5 64 1041 58" version="1.1" xmlns="http://www.w3.org/2000/svg" style="width:1041px;height:58px"><style type="text/css">svg * {color:#000;font-family:Times New Roman,serif;line-height:22px;font-style:normal;font-weight:500;}svg > text, svg > text > tspan {font-size:30px;}svg > text.prefix, svg > text.prefix > tspan {font-size:15px;}svg > text > tspan.d {font-size:20px;}svg > text.prefix > tspan.d {font-size:10px;}svg > text > tspan.u {font-size:20px;}svg > text.prefix > tspan.u {font-size:10px;}</style><rect style="fill:#FFF" height="58" width="1041" y="64" x="-20.5"/><defs><marker orient="auto" refY="7" refX="4" markerHeight="13" markerWidth="13" id="markerArrow284"><path style="fill:#000;" d="M2,7 L2,9.5 L5,7 L2,4.5 L2,7"/></marker><marker orient="auto" refY="7" refX="4" markerHeight="13" markerWidth="13" id="markerArrow284_extra"><path style="fill:#C00;" d="M2,7 L2,9.5 L5,7 L2,4.5 L2,7"/></marker></defs><circle style="fill:#000" r="20" cy="100" cx="50"/><circle style="fill:#FFF" r="18" cy="100" cx="50"/><text style="fill:#000;" text-anchor="middle" y="110" x="50"><tspan style="font-weight:bold;">#</tspan></text><text style="fill:#000" text-anchor="middle" y="78" x="50" class="prefix"><tspan style="font-weight:bold;">#</tspan></text><circle style="fill:#000" r="20" cy="100" cx="150"/><circle style="fill:#FFF" r="18" cy="100" cx="150"/><text style="fill:#000;" text-anchor="middle" y="110" x="150">A</text><text style="fill:#000" text-anchor="middle" y="78" x="150" class="prefix">AGAGAGA</text><path style="stroke: #000; stroke-width: 2.25px; fill: none; marker-end: url(#markerArrow284);" d="M75,100 L125,100"/><circle style="fill:#000" r="20" cy="100" cx="250"/><circle style="fill:#FFF" r="18" cy="100" cx="250"/><text style="fill:#000;" text-anchor="middle" y="110" x="250">G</text><text style="fill:#000" text-anchor="middle" y="78" x="250" class="prefix">GAGAGA</text><path style="stroke: #000; stroke-width: 2.25px; fill: none; marker-end: url(#markerArrow284);" d="M175,100 L225,100"/><circle style="fill:#000" r="20" cy="100" cx="350"/><circle style="fill:#FFF" r="18" cy="100" cx="350"/><text style="fill:#000;" text-anchor="middle" y="110" x="350">A</text><text style="fill:#000" text-anchor="middle" y="78" x="350" class="prefix">AGAGAG$</text><path style="stroke: #000; stroke-width: 2.25px; fill: none; marker-end: url(#markerArrow284);" d="M275,100 L325,100"/><circle style="fill:#000" r="20" cy="100" cx="450"/><circle style="fill:#FFF" r="18" cy="100" cx="450"/><text style="fill:#000;" text-anchor="middle" y="110" x="450">G</text><text style="fill:#000" text-anchor="middle" y="78" x="450" class="prefix">GAGAG$</text><path style="stroke: #000; stroke-width: 2.25px; fill: none; marker-end: url(#markerArrow284);" d="M375,100 L425,100"/><circle style="fill:#000" r="20" cy="100" cx="550"/><circle style="fill:#FFF" r="18" cy="100" cx="550"/><text style="fill:#000;" text-anchor="middle" y="110" x="550">A</text><text style="fill:#000" text-anchor="middle" y="78" x="550" class="prefix">AGAG$</text><path style="stroke: #000; stroke-width: 2.25px; fill: none; marker-end: url(#markerArrow284);" d="M475,100 L525,100"/><circle style="fill:#000" r="20" cy="100" cx="650"/><circle style="fill:#FFF" r="18" cy="100" cx="650"/><text style="fill:#000;" text-anchor="middle" y="110" x="650">G</text><text style="fill:#000" text-anchor="middle" y="78" x="650" class="prefix">GAG$</text><path style="stroke: #000; stroke-width: 2.25px; fill: none; marker-end: url(#markerArrow284);" d="M575,100 L625,100"/><circle style="fill:#000" r="20" cy="100" cx="750"/><circle style="fill:#FFF" r="18" cy="100" cx="750"/><text style="fill:#000;" text-anchor="middle" y="110" x="750">A</text><text style="fill:#000" text-anchor="middle" y="78" x="750" class="prefix">AG$</text><path style="stroke: #000; stroke-width: 2.25px; fill: none; marker-end: url(#markerArrow284);" d="M675,100 L725,100"/><circle style="fill:#000" r="20" cy="100" cx="850"/><circle style="fill:#FFF" r="18" cy="100" cx="850"/><text style="fill:#000;" text-anchor="middle" y="110" x="850">G</text><text style="fill:#000" text-anchor="middle" y="78" x="850" class="prefix">G$</text><path style="stroke: #000; stroke-width: 2.25px; fill: none; marker-end: url(#markerArrow284);" d="M775,100 L825,100"/><circle style="fill:#000" r="20" cy="100" cx="950"/><circle style="fill:#FFF" r="18" cy="100" cx="950"/><text style="fill:#000;" text-anchor="middle" y="110" x="950">$</text><text style="fill:#000" text-anchor="middle" y="78" x="950" class="prefix">$</text><path style="stroke: #000; stroke-width: 2.25px; fill: none; marker-end: url(#markerArrow284);" d="M875,100 L925,100"/></svg>