<?xml version="1.0" standalone="no"?>
<svg preserveAspectRatio="xMidYMid slice" viewBox="-170.5 -76 1041 338" version="1.1" xmlns="http://www.w3.org/2000/svg" style="width:1041px;height:338px"><style type="text/css">svg * {color:#000;font-family:Times New Roman,serif;line-height:22px;font-style:normal;font-weight:500;}svg > text, svg > text > tspan {font-size:30px;}svg > text.prefix, svg > text.prefix > tspan {font-size:15px;}svg > text > tspan.d {font-size:20px;}svg > text.prefix > tspan.d {font-size:10px;}svg > text > tspan.u {font-size:20px;}svg > text.prefix > tspan.u {font-size:10px;}</style><rect style="fill:#FFF" height="338" width="1041" y="-76" x="-170.5"/><defs><marker orient="auto" refY="7" refX="4" markerHeight="13" markerWidth="13" id="markerArrow285"><path style="fill:#000;" d="M2,7 L2,9.5 L5,7 L2,4.5 L2,7"/></marker><marker orient="auto" refY="7" refX="4" markerHeight="13" markerWidth="13" id="markerArrow285_extra"><path style="fill:#C00;" d="M2,7 L2,9.5 L5,7 L2,4.5 L2,7"/></marker></defs><circle style="fill:#000" r="20" cy="100" cx="50"/><circle style="fill:#FFF" r="18" cy="100" cx="50"/><text style="fill:#000;" text-anchor="middle" y="110" x="50"><tspan style="font-weight:bold;">#</tspan></text><text style="fill:#000" text-anchor="middle" y="78" x="50" class="prefix"><tspan style="font-weight:bold;">#</tspan></text><circle style="fill:#000" r="20" cy="100" cx="150"/><circle style="fill:#FFF" r="18" cy="100" cx="150"/><text style="fill:#000;" text-anchor="middle" y="110" x="150">A</text><text style="fill:#000" text-anchor="middle" y="78" x="150" class="prefix">A</text><path style="stroke: #000; stroke-width: 2.25px; fill: none; marker-end: url(#markerArrow285);" d="M75,100 L125,100"/><circle style="fill:#000" r="20" cy="100" cx="250"/><circle style="fill:#FFF" r="18" cy="100" cx="250"/><text style="fill:#000;" text-anchor="middle" y="110" x="250">C</text><text style="fill:#000" text-anchor="middle" y="78" x="250" class="prefix">CC</text><path style="stroke: #000; stroke-width: 2.25px; fill: none; marker-end: url(#markerArrow285);" d="M175,100 L225,100"/><circle style="fill:#000" r="20" cy="100" cx="350"/><circle style="fill:#FFF" r="18" cy="100" cx="350"/><text style="fill:#000;" text-anchor="middle" y="110" x="350">C</text><text style="fill:#000" text-anchor="middle" y="78" x="350" class="prefix">CTG</text><path style="stroke: #000; stroke-width: 2.25px; fill: none; marker-end: url(#markerArrow285);" d="M275,100 L325,100"/><circle style="fill:#000" r="20" cy="100" cx="450"/><circle style="fill:#FFF" r="18" cy="100" cx="450"/><text style="fill:#000;" text-anchor="middle" y="110" x="450">T</text><text style="fill:#000" text-anchor="middle" y="78" x="450" class="prefix">TG</text><path style="stroke: #000; stroke-width: 2.25px; fill: none; marker-end: url(#markerArrow285);" d="M375,100 L425,100"/><circle style="fill:#000" r="20" cy="100" cx="550"/><circle style="fill:#FFF" r="18" cy="100" cx="550"/><text style="fill:#000;" text-anchor="middle" y="110" x="550">G</text><text style="fill:#000" text-anchor="middle" y="78" x="550" class="prefix">G</text><path style="stroke: #000; stroke-width: 2.25px; fill: none; marker-end: url(#markerArrow285);" d="M475,100 L525,100"/><circle style="fill:#000" r="20" cy="100" cx="650"/><circle style="fill:#FFF" r="18" cy="100" cx="650"/><text style="fill:#000;" text-anchor="middle" y="110" x="650">$</text><text style="fill:#000" text-anchor="middle" y="78" x="650" class="prefix">$</text><path style="stroke: #000; stroke-width: 2.25px; fill: none; marker-end: url(#markerArrow285);" d="M575,100 L625,100"/><path style="stroke: #000; stroke-width: 2.25px; fill: none; marker-end: url(#markerArrow285);" d="M160,125 Q350 200, 540 125"/><path style="stroke: #000; stroke-width: 2.25px; fill: none; marker-end: url(#markerArrow285);" d="M160,65 Q250 0, 340 65"/><circle style="fill:#000" r="20" cy="240" cx="225"/><circle style="fill:#FFF" r="18" cy="240" cx="225"/><text style="fill:#000;" text-anchor="middle" y="250" x="225">C</text><text style="fill:#000" text-anchor="middle" y="218" x="225" class="prefix">CTT</text><path style="stroke: #000; stroke-width: 2.25px; fill: none; marker-end: url(#markerArrow285);" d="M153,125 Q160,240 200,240"/><circle style="fill:#000" r="20" cy="240" cx="375"/><circle style="fill:#FFF" r="18" cy="240" cx="375"/><text style="fill:#000;" text-anchor="middle" y="250" x="375">T</text><text style="fill:#000" text-anchor="middle" y="218" x="375" class="prefix">TT</text><path style="stroke: #000; stroke-width: 2.25px; fill: none; marker-end: url(#markerArrow285);" d="M250,240 L350,240"/><path style="stroke: #000; stroke-width: 2.25px; fill: none; marker-end: url(#markerArrow285);" d="M400,240 Q440,240 447,125"/><circle style="fill:#000" r="20" cy="-40" cx="350"/><circle style="fill:#FFF" r="18" cy="-40" cx="350"/><text style="fill:#000;" text-anchor="middle" y="-30" x="350">C</text><text style="fill:#000" text-anchor="middle" y="-62" x="350" class="prefix">CG</text><path style="stroke: #000; stroke-width: 2.25px; fill: none; marker-end: url(#markerArrow285);" d="M153,65 Q160,-40 325,-40"/><path style="stroke: #000; stroke-width: 2.25px; fill: none; marker-end: url(#markerArrow285);" d="M375,-40 Q540,-40 547,65"/><path style="stroke: #000; stroke-width: 2.25px; fill: none; marker-end: url(#markerArrow285);" d="M253,65 Q260,-40 325,-40"/></svg>